<?xml version="1.0" encoding="UTF-8"?>
<svg id="Ebene_1" data-name="Ebene 1" xmlns="http://www.w3.org/2000/svg" viewBox="0 0 718.26 718.27">
  <defs>
    <style>
      .cls-1 {
        fill: #1d1d1b;
      }

      .cls-1, .cls-2 {
        stroke-width: 0px;
      }

      .cls-2 {
        fill: #fff;
      }
    </style>
  </defs>
  <rect class="cls-1" x="0" width="718.26" height="718.26"/>
  <g>
    <path class="cls-2" d="M83.25,370.06c-2.26,0-4.34-.31-6.22-.94-1.88-.63-3.59-1.57-5.12-2.82l4.08-5.02c1.04.7,2.14,1.28,3.29,1.75,1.15.47,2.47.71,3.97.71,1.08,0,1.93-.17,2.56-.52.63-.35.94-.85.94-1.51,0-.49-.19-.87-.57-1.15-.38-.28-.91-.49-1.57-.63-.66-.14-1.39-.26-2.19-.37-1.01-.14-2.08-.33-3.21-.57-1.13-.24-2.21-.64-3.24-1.18-1.03-.54-1.85-1.3-2.48-2.27-.63-.97-.94-2.26-.94-3.87,0-1.71.46-3.18,1.38-4.41.92-1.24,2.22-2.19,3.89-2.85,1.67-.66,3.64-.99,5.9-.99,4.18,0,7.64,1.04,10.4,3.13l-4.07,5.02c-.91-.52-1.85-.97-2.85-1.33-.99-.37-2.15-.55-3.47-.55-.98,0-1.75.15-2.32.44-.57.3-.86.72-.86,1.28,0,.45.17.8.52,1.04.35.24.84.43,1.46.55.63.12,1.29.24,1.99.34,1.04.14,2.15.32,3.32.55,1.17.23,2.28.61,3.34,1.15,1.06.54,1.92,1.32,2.59,2.35.66,1.03.99,2.38.99,4.05,0,1.78-.47,3.31-1.41,4.6-.94,1.29-2.27,2.28-4,2.98-1.72.7-3.75,1.04-6.09,1.04Z"/>
    <path class="cls-2" d="M111.51,370.06c-4.32,0-7.71-1.18-10.16-3.53-2.45-2.35-3.68-5.63-3.68-9.85,0-2.75.55-5.12,1.65-7.1,1.1-1.99,2.68-3.51,4.75-4.57,2.07-1.06,4.55-1.59,7.44-1.59,4.35,0,7.75,1.18,10.19,3.53,2.44,2.35,3.66,5.6,3.66,9.74,0,2.82-.56,5.22-1.67,7.18-1.11,1.97-2.7,3.49-4.75,4.57-2.06,1.08-4.53,1.62-7.42,1.62ZM111.51,363c1.15,0,2.14-.25,2.98-.76.84-.5,1.48-1.22,1.93-2.14.45-.92.68-2.06.68-3.42,0-1.91-.5-3.44-1.49-4.57-.99-1.13-2.36-1.7-4.1-1.7-1.18,0-2.19.25-3.03.76-.84.51-1.47,1.23-1.91,2.17-.44.94-.65,2.06-.65,3.34,0,1.99.5,3.54,1.49,4.65.99,1.11,2.36,1.67,4.1,1.67Z"/>
    <path class="cls-2" d="M137.42,344.04v15.1c0,1.18.35,2.12,1.04,2.82.7.7,1.65,1.04,2.87,1.04,2.09,0,3.81-.87,5.17-2.61l2.72,3.34c-1.81,4.21-5.09,6.32-9.82,6.32-3.13,0-5.58-.91-7.34-2.72-1.76-1.81-2.64-4.32-2.64-7.52v-15.78h7.99ZM154.35,344.04v25.39h-6.06l-1.93-5.02v-20.37h7.99Z"/>
    <path class="cls-2" d="M158.22,350.83v-6.79h19.17v6.79h-19.17ZM172.17,370.06c-3.1,0-5.5-.85-7.21-2.56-1.71-1.71-2.56-4.11-2.56-7.21v-21.11l7.99-4.02v24.61c0,1.04.28,1.85.84,2.4.56.56,1.36.84,2.4.84.56,0,1.1-.06,1.62-.18.52-.12,1.04-.27,1.57-.44l1.83,6.43c-1.92.84-4.08,1.25-6.48,1.25Z"/>
    <path class="cls-2" d="M182.14,369.43v-33.12l7.99-4.02v37.14h-7.99ZM199.07,369.43v-15.1c0-1.25-.34-2.22-1.02-2.9s-1.65-1.02-2.9-1.02c-2.09,0-3.81.87-5.17,2.61l-2.72-3.34c1.81-4.18,5.08-6.27,9.82-6.27,3.1,0,5.54.91,7.31,2.72,1.78,1.81,2.66,4.3,2.66,7.47v15.83h-7.99Z"/>
    <path class="cls-2" d="M212.29,369.43v-33.12l7.99-4.02v32.13l-1.93,5.02h-6.06ZM226.71,370.06c-4.7,0-7.8-2.11-9.3-6.32l2.72-3.34c1.22,1.74,2.87,2.61,4.96,2.61,1.15,0,2.13-.25,2.95-.76.82-.5,1.44-1.22,1.88-2.14.44-.92.65-2.06.65-3.42,0-1.91-.49-3.44-1.46-4.57-.98-1.13-2.32-1.7-4.02-1.7-1.08,0-2.02.22-2.82.65-.8.44-1.52,1.09-2.14,1.96l-2.72-3.34c.73-2.09,1.88-3.66,3.45-4.7s3.52-1.57,5.85-1.57c3.8,0,6.77,1.18,8.91,3.53,2.14,2.35,3.21,5.6,3.21,9.74,0,2.82-.49,5.22-1.46,7.18-.98,1.97-2.36,3.49-4.15,4.57s-3.96,1.62-6.5,1.62Z"/>
    <path class="cls-2" d="M255.91,370.06c-4.32,0-7.71-1.18-10.16-3.53-2.46-2.35-3.68-5.63-3.68-9.85,0-2.75.55-5.12,1.65-7.1s2.68-3.51,4.75-4.57c2.07-1.06,4.55-1.59,7.44-1.59,4.35,0,7.75,1.18,10.19,3.53,2.44,2.35,3.66,5.6,3.66,9.74,0,2.82-.56,5.22-1.67,7.18-1.12,1.97-2.7,3.49-4.75,4.57-2.06,1.08-4.53,1.62-7.42,1.62ZM255.91,363c1.15,0,2.14-.25,2.98-.76.84-.5,1.48-1.22,1.93-2.14.45-.92.68-2.06.68-3.42,0-1.91-.5-3.44-1.49-4.57-.99-1.13-2.36-1.7-4.1-1.7-1.18,0-2.19.25-3.03.76-.84.51-1.47,1.23-1.91,2.17-.44.94-.65,2.06-.65,3.34,0,1.99.5,3.54,1.49,4.65.99,1.11,2.36,1.67,4.1,1.67Z"/>
    <path class="cls-2" d="M281.82,344.04v15.1c0,1.18.35,2.12,1.04,2.82.7.7,1.65,1.04,2.87,1.04,2.09,0,3.81-.87,5.17-2.61l2.72,3.34c-1.81,4.21-5.09,6.32-9.82,6.32-3.13,0-5.58-.91-7.34-2.72-1.76-1.81-2.64-4.32-2.64-7.52v-15.78h7.99ZM298.75,344.04v25.39h-6.06l-1.93-5.02v-20.37h7.99Z"/>
    <path class="cls-2" d="M304.28,369.43v-25.39h6.06l1.93,5.02v20.37h-7.99ZM321.21,369.43v-15.1c0-1.25-.34-2.22-1.02-2.9s-1.65-1.02-2.9-1.02c-2.09,0-3.81.87-5.17,2.61l-2.72-3.34c1.81-4.18,5.08-6.27,9.82-6.27,3.1,0,5.54.91,7.31,2.72,1.78,1.81,2.66,4.3,2.66,7.47v15.83h-7.99Z"/>
    <path class="cls-2" d="M345.35,370.06c-3.76,0-6.71-1.18-8.86-3.53s-3.21-5.63-3.21-9.85c0-2.75.49-5.12,1.46-7.1.97-1.99,2.36-3.51,4.15-4.57,1.79-1.06,3.94-1.59,6.45-1.59,4.74,0,7.87,2.09,9.4,6.27l-2.77,3.34c-1.22-1.74-2.87-2.61-4.96-2.61-1.15,0-2.13.25-2.95.76-.82.51-1.45,1.23-1.88,2.17-.44.94-.65,2.06-.65,3.34,0,1.99.48,3.54,1.44,4.65.96,1.11,2.31,1.67,4.05,1.67,1.04,0,1.99-.22,2.82-.65.84-.44,1.55-1.09,2.14-1.96l2.77,3.34c-.77,2.12-1.93,3.71-3.5,4.75s-3.54,1.57-5.9,1.57ZM353.76,369.43l-1.93-5.02v-28.11l7.99-4.02v37.14h-6.06Z"/>
    <path class="cls-2" d="M379.51,378.78v-33.96h2.04l.31,5.02v27.74l-2.35,1.2ZM390.54,370.06c-3.9,0-6.98-1.57-9.25-4.7l.42-2.14c2.23,3.1,5.07,4.65,8.52,4.65,2.02,0,3.74-.43,5.17-1.28,1.43-.85,2.52-2.08,3.27-3.68.75-1.6,1.12-3.52,1.12-5.75,0-3.38-.84-6.02-2.53-7.91-1.69-1.9-4.03-2.85-7.03-2.85-1.71,0-3.27.38-4.7,1.15-1.43.77-2.7,1.92-3.81,3.45l-.42-2.09c1.11-1.57,2.44-2.74,3.97-3.53,1.53-.78,3.29-1.18,5.28-1.18,3.62,0,6.47,1.14,8.54,3.42,2.07,2.28,3.11,5.46,3.11,9.53,0,2.68-.46,4.99-1.38,6.92-.92,1.93-2.26,3.41-4,4.44-1.74,1.03-3.83,1.54-6.27,1.54Z"/>
    <path class="cls-2" d="M409.19,369.43v-24.61h2.04l.31,5.02v19.59h-2.35ZM411.22,351.67l-.42-2.35c.91-1.71,2.12-2.99,3.66-3.84,1.53-.85,3.34-1.28,5.43-1.28.84,0,1.62.1,2.35.31l-.31,2.25c-.35-.07-.69-.13-1.02-.18-.33-.05-.69-.08-1.07-.08-3.87,0-6.74,1.72-8.62,5.17Z"/>
    <path class="cls-2" d="M438.02,370.06c-3.83,0-6.84-1.15-9.01-3.45-2.18-2.3-3.27-5.45-3.27-9.46,0-2.72.49-5.04,1.46-6.97.97-1.93,2.38-3.41,4.21-4.44,1.83-1.03,4.03-1.54,6.61-1.54,3.83,0,6.82,1.14,8.96,3.42,2.14,2.28,3.21,5.46,3.21,9.53,0,2.68-.48,4.99-1.44,6.92-.96,1.93-2.35,3.41-4.18,4.44-1.83,1.03-4.01,1.54-6.56,1.54ZM438.02,367.86c2.02,0,3.77-.43,5.25-1.28,1.48-.85,2.6-2.08,3.37-3.68.77-1.6,1.15-3.52,1.15-5.75,0-3.38-.86-6.02-2.59-7.91-1.72-1.9-4.12-2.85-7.18-2.85-2.09,0-3.87.43-5.33,1.28-1.46.85-2.59,2.09-3.37,3.71-.78,1.62-1.18,3.54-1.18,5.77,0,3.34.87,5.96,2.61,7.86,1.74,1.9,4.16,2.85,7.26,2.85Z"/>
    <path class="cls-2" d="M467.07,370.06c-3.62,0-6.47-1.15-8.54-3.45-2.07-2.3-3.11-5.45-3.11-9.46,0-2.72.47-5.04,1.41-6.97.94-1.93,2.28-3.41,4.02-4.44,1.74-1.03,3.81-1.54,6.22-1.54,3.97,0,7.07,1.57,9.3,4.7l-.42,2.09c-2.23-3.06-5.09-4.6-8.57-4.6-1.99,0-3.7.43-5.15,1.28-1.45.85-2.54,2.09-3.29,3.71-.75,1.62-1.12,3.54-1.12,5.77,0,3.34.84,5.96,2.53,7.86,1.69,1.9,4.03,2.85,7.03,2.85,1.74,0,3.33-.38,4.75-1.15,1.43-.77,2.7-1.93,3.81-3.5l.42,2.14c-1.11,1.57-2.45,2.74-4,3.53-1.55.78-3.32,1.18-5.3,1.18ZM476.11,369.43l-.31-5.02v-29.52l2.35-1.2v35.73h-2.04Z"/>
    <path class="cls-2" d="M488.91,344.82v16.09c0,2.16.61,3.86,1.83,5.09,1.22,1.24,2.93,1.85,5.12,1.85,3.48,0,6.34-1.55,8.57-4.65l.47,2.14c-2.3,3.13-5.43,4.7-9.4,4.7-2.79,0-4.97-.8-6.56-2.4-1.59-1.6-2.38-3.8-2.38-6.58v-16.25h2.35ZM506.62,344.82v24.61h-2.04l-.31-5.02v-19.59h2.35Z"/>
    <path class="cls-2" d="M525.74,370.06c-3.8,0-6.77-1.15-8.91-3.45-2.14-2.3-3.21-5.45-3.21-9.46,0-2.72.48-5.04,1.44-6.97.96-1.93,2.34-3.41,4.15-4.44,1.81-1.03,3.99-1.54,6.53-1.54,4.81,0,8.29,1.99,10.45,5.96l-2.14.99c-.87-1.53-1.99-2.71-3.37-3.53-1.38-.82-3.02-1.23-4.94-1.23-2.02,0-3.76.43-5.22,1.28-1.46.85-2.58,2.09-3.34,3.71-.77,1.62-1.15,3.54-1.15,5.77,0,3.34.85,5.96,2.56,7.86,1.71,1.9,4.09,2.85,7.16,2.85,1.91,0,3.56-.4,4.94-1.2,1.38-.8,2.5-1.99,3.37-3.55l2.14.99c-2.16,3.97-5.64,5.96-10.45,5.96Z"/>
    <path class="cls-2" d="M540.16,346.96v-2.14h16.72v2.14h-16.72ZM552.9,370.06c-2.33,0-4.15-.64-5.43-1.91-1.29-1.27-1.93-3.09-1.93-5.46v-24.14l2.35-1.2v25.23c0,1.71.45,3.01,1.36,3.92.91.91,2.19,1.36,3.87,1.36.77,0,1.49-.09,2.17-.26.68-.17,1.37-.44,2.06-.78l.78,1.99c-1.5.84-3.24,1.25-5.22,1.25Z"/>
    <path class="cls-2" d="M565.65,338.61c-.59,0-1.04-.15-1.33-.44-.3-.3-.44-.74-.44-1.33s.15-1.04.44-1.36c.3-.31.74-.47,1.33-.47s1.04.16,1.36.47.47.77.47,1.36-.16,1.04-.47,1.33c-.31.3-.77.44-1.36.44ZM564.5,369.43v-24.61h2.35v24.61h-2.35Z"/>
    <path class="cls-2" d="M586.13,370.06c-3.83,0-6.84-1.15-9.01-3.45-2.18-2.3-3.27-5.45-3.27-9.46,0-2.72.49-5.04,1.46-6.97.97-1.93,2.38-3.41,4.21-4.44,1.83-1.03,4.03-1.54,6.61-1.54,3.83,0,6.82,1.14,8.96,3.42,2.14,2.28,3.21,5.46,3.21,9.53,0,2.68-.48,4.99-1.44,6.92-.96,1.93-2.35,3.41-4.18,4.44-1.83,1.03-4.01,1.54-6.56,1.54ZM586.13,367.86c2.02,0,3.77-.43,5.25-1.28,1.48-.85,2.6-2.08,3.37-3.68.77-1.6,1.15-3.52,1.15-5.75,0-3.38-.86-6.02-2.59-7.91-1.72-1.9-4.12-2.85-7.18-2.85-2.09,0-3.87.43-5.33,1.28-1.46.85-2.59,2.09-3.37,3.71-.78,1.62-1.18,3.54-1.18,5.77,0,3.34.87,5.96,2.61,7.86,1.74,1.9,4.16,2.85,7.26,2.85Z"/>
    <path class="cls-2" d="M605.3,369.43v-24.61h2.04l.31,5.02v19.59h-2.35ZM623.01,369.43v-16.09c0-2.19-.61-3.9-1.83-5.12-1.22-1.22-2.91-1.83-5.07-1.83-3.52,0-6.39,1.53-8.62,4.6l-.42-2.09c2.3-3.13,5.4-4.7,9.3-4.7,2.82,0,5.02.8,6.61,2.4,1.58,1.6,2.38,3.8,2.38,6.58v16.25h-2.35Z"/>
    <path class="cls-2" d="M641.19,370.06c-2.02,0-3.83-.32-5.43-.97-1.6-.64-3.05-1.58-4.34-2.79l1.46-1.62c1.15,1.08,2.41,1.9,3.79,2.46,1.38.56,2.88.84,4.52.84,2.16,0,3.88-.45,5.17-1.36,1.29-.91,1.93-2.12,1.93-3.66,0-1.32-.36-2.31-1.07-2.95-.71-.64-1.63-1.11-2.74-1.41-1.11-.3-2.3-.55-3.55-.76-1.08-.14-2.14-.33-3.19-.57-1.04-.24-1.99-.59-2.85-1.04-.85-.45-1.54-1.09-2.06-1.91-.52-.82-.78-1.89-.78-3.21,0-1.43.38-2.65,1.15-3.68.77-1.03,1.83-1.82,3.19-2.38,1.36-.56,2.98-.84,4.86-.84,3.66,0,6.58,1.04,8.78,3.13l-1.46,1.62c-1.01-.91-2.12-1.58-3.32-2.01-1.2-.44-2.53-.65-4-.65-2.09,0-3.75.43-4.99,1.28-1.24.85-1.85,1.99-1.85,3.42,0,1.25.34,2.19,1.02,2.79.68.61,1.56,1.05,2.64,1.33,1.08.28,2.25.51,3.5.68,1.08.14,2.15.33,3.21.57,1.06.24,2.04.61,2.93,1.1.89.49,1.6,1.16,2.14,2.01.54.85.81,1.98.81,3.37,0,1.46-.38,2.73-1.15,3.81-.77,1.08-1.86,1.92-3.29,2.51-1.43.59-3.1.89-5.02.89Z"/>
  </g>
</svg>