<?xml version="1.0" encoding="UTF-8"?>
<svg id="Ebene_1" data-name="Ebene 1" xmlns="http://www.w3.org/2000/svg" viewBox="0 0 165.17 165.18">
  <defs>
    <style>
      .cls-1 {
        fill: #1d1d1b;
        stroke-width: 0px;
      }
    </style>
  </defs>
  <path class="cls-1" d="M57.62,88.02c-5.55,0-10.62-.77-15.23-2.31-4.61-1.53-8.79-3.84-12.55-6.91l9.98-12.29c2.56,1.71,5.25,3.14,8.06,4.29,2.82,1.16,6.06,1.73,9.73,1.73,2.64,0,4.73-.43,6.27-1.28,1.54-.85,2.31-2.09,2.31-3.71,0-1.19-.47-2.13-1.41-2.82-.94-.68-2.22-1.19-3.84-1.53-1.62-.34-3.42-.64-5.38-.9-2.48-.34-5.1-.81-7.87-1.41-2.77-.6-5.42-1.56-7.94-2.88-2.52-1.32-4.54-3.18-6.08-5.57-1.54-2.39-2.3-5.55-2.3-9.47,0-4.18,1.13-7.79,3.39-10.82,2.26-3.03,5.44-5.35,9.53-6.97,4.1-1.62,8.92-2.43,14.47-2.43,10.24,0,18.73,2.56,25.47,7.68l-9.98,12.29c-2.22-1.28-4.55-2.37-6.98-3.27-2.43-.89-5.27-1.34-8.51-1.34-2.39,0-4.29.36-5.69,1.09-1.41.73-2.11,1.77-2.11,3.14,0,1.11.42,1.96,1.28,2.56.85.59,2.05,1.05,3.58,1.34,1.54.3,3.16.58,4.86.83,2.56.34,5.27.79,8.13,1.34,2.86.56,5.59,1.49,8.19,2.81,2.61,1.33,4.72,3.25,6.34,5.76,1.62,2.52,2.43,5.82,2.43,9.92,0,4.35-1.15,8.11-3.45,11.27-2.31,3.16-5.57,5.59-9.79,7.3-4.23,1.7-9.2,2.56-14.91,2.56Z"/>
  <path class="cls-1" d="M67.73,148.8V59.58h14.85l4.73,12.29v72.06l-19.58,4.86ZM103.05,123.33c-11.52,0-19.11-5.16-22.78-15.49l6.66-8.19c2.98,4.27,7.04,6.4,12.16,6.4,2.82,0,5.23-.62,7.23-1.86,2-1.24,3.54-2.99,4.61-5.25s1.6-5.06,1.6-8.38c0-4.69-1.19-8.43-3.58-11.2-2.39-2.77-5.67-4.16-9.86-4.16-2.64,0-4.95.53-6.91,1.6-1.96,1.07-3.71,2.67-5.25,4.8l-6.66-8.19c1.79-5.12,4.61-8.96,8.45-11.52,3.84-2.56,8.61-3.84,14.33-3.84,9.3,0,16.58,2.88,21.83,8.64,5.25,5.76,7.87,13.72,7.87,23.87,0,6.91-1.2,12.78-3.58,17.6-2.39,4.82-5.78,8.56-10.18,11.2-4.4,2.64-9.71,3.97-15.94,3.97Z"/>
</svg>