<?xml version="1.0" encoding="UTF-8"?>
<svg id="Ebene_1" data-name="Ebene 1" xmlns="http://www.w3.org/2000/svg" viewBox="0 0 1183.95 165.18">
  <defs>
    <style>
      .cls-1 {
        fill: #1d1d1b;
        stroke-width: 0px;
      }
    </style>
  </defs>
  <path class="cls-1" d="M58.07,112.4c-4.33,0-8.3-.6-11.9-1.8-3.6-1.2-6.87-3-9.8-5.4l7.8-9.6c2,1.33,4.1,2.45,6.3,3.35,2.2.9,4.73,1.35,7.6,1.35,2.07,0,3.7-.33,4.9-1,1.2-.67,1.8-1.63,1.8-2.9,0-.93-.37-1.67-1.1-2.2-.73-.53-1.73-.93-3-1.2-1.27-.27-2.67-.5-4.2-.7-1.93-.27-3.98-.63-6.15-1.1-2.17-.47-4.23-1.22-6.2-2.25-1.97-1.03-3.55-2.48-4.75-4.35-1.2-1.87-1.8-4.33-1.8-7.4,0-3.27.88-6.08,2.65-8.45,1.77-2.37,4.25-4.18,7.45-5.45,3.2-1.27,6.96-1.9,11.3-1.9,8,0,14.63,2,19.9,6l-7.8,9.6c-1.73-1-3.55-1.85-5.45-2.55-1.9-.7-4.12-1.05-6.65-1.05-1.87,0-3.35.28-4.45.85-1.1.57-1.65,1.38-1.65,2.45,0,.87.33,1.53,1,2,.67.47,1.6.82,2.8,1.05,1.2.23,2.46.45,3.8.65,2,.27,4.12.62,6.35,1.05,2.23.43,4.37,1.17,6.4,2.2,2.03,1.03,3.68,2.53,4.95,4.5,1.27,1.97,1.9,4.55,1.9,7.75,0,3.4-.9,6.33-2.7,8.8-1.8,2.47-4.35,4.37-7.65,5.7-3.3,1.33-7.18,2-11.65,2Z"/>
  <path class="cls-1" d="M112.17,112.4c-8.27,0-14.75-2.25-19.45-6.75-4.7-4.5-7.05-10.78-7.05-18.85,0-5.27,1.05-9.8,3.15-13.6,2.1-3.8,5.13-6.72,9.1-8.75,3.97-2.03,8.72-3.05,14.25-3.05,8.33,0,14.83,2.25,19.5,6.75,4.67,4.5,7,10.72,7,18.65,0,5.4-1.07,9.98-3.2,13.75-2.13,3.77-5.17,6.68-9.1,8.75-3.93,2.07-8.67,3.1-14.2,3.1ZM112.17,98.9c2.2,0,4.1-.48,5.7-1.45,1.6-.97,2.83-2.33,3.7-4.1.87-1.77,1.3-3.95,1.3-6.55,0-3.67-.95-6.58-2.85-8.75-1.9-2.17-4.52-3.25-7.85-3.25-2.27,0-4.2.48-5.8,1.45-1.6.97-2.82,2.35-3.65,4.15-.83,1.8-1.25,3.93-1.25,6.4,0,3.8.95,6.77,2.85,8.9,1.9,2.13,4.52,3.2,7.85,3.2Z"/>
  <path class="cls-1" d="M161.77,62.6v28.9c0,2.27.67,4.07,2,5.4,1.33,1.33,3.17,2,5.5,2,4,0,7.3-1.67,9.9-5l5.2,6.4c-3.47,8.07-9.73,12.1-18.8,12.1-6,0-10.68-1.73-14.05-5.2-3.37-3.47-5.05-8.27-5.05-14.4v-30.2h15.3ZM194.17,62.6v48.6h-11.6l-3.7-9.6v-39h15.3Z"/>
  <path class="cls-1" d="M201.57,75.6v-13h36.7v13h-36.7ZM228.27,112.4c-5.93,0-10.53-1.63-13.8-4.9-3.27-3.27-4.9-7.87-4.9-13.8v-40.4l15.3-7.7v47.1c0,2,.53,3.53,1.6,4.6,1.07,1.07,2.6,1.6,4.6,1.6,1.07,0,2.1-.12,3.1-.35,1-.23,2-.52,3-.85l3.5,12.3c-3.67,1.6-7.8,2.4-12.4,2.4Z"/>
  <path class="cls-1" d="M247.37,111.2v-63.4l15.3-7.7v71.1h-15.3ZM279.77,111.2v-28.9c0-2.4-.65-4.25-1.95-5.55s-3.15-1.95-5.55-1.95c-4,0-7.3,1.67-9.9,5l-5.2-6.4c3.47-8,9.73-12,18.8-12,5.93,0,10.6,1.73,14,5.2,3.4,3.47,5.1,8.23,5.1,14.3v30.3h-15.3Z"/>
  <path class="cls-1" d="M305.07,111.2v-63.4l15.3-7.7v61.5l-3.7,9.6h-11.6ZM332.67,112.4c-9,0-14.93-4.03-17.8-12.1l5.2-6.4c2.33,3.33,5.5,5,9.5,5,2.2,0,4.08-.48,5.65-1.45,1.57-.97,2.77-2.33,3.6-4.1.83-1.77,1.25-3.95,1.25-6.55,0-3.67-.93-6.58-2.8-8.75-1.87-2.17-4.43-3.25-7.7-3.25-2.07,0-3.87.42-5.4,1.25-1.54.83-2.9,2.08-4.1,3.75l-5.2-6.4c1.4-4,3.6-7,6.6-9s6.73-3,11.2-3c7.27,0,12.95,2.25,17.05,6.75,4.1,4.5,6.15,10.72,6.15,18.65,0,5.4-.93,9.98-2.8,13.75-1.87,3.77-4.52,6.68-7.95,8.75s-7.58,3.1-12.45,3.1Z"/>
  <path class="cls-1" d="M388.57,112.4c-8.27,0-14.75-2.25-19.45-6.75-4.7-4.5-7.05-10.78-7.05-18.85,0-5.27,1.05-9.8,3.15-13.6s5.13-6.72,9.1-8.75c3.97-2.03,8.72-3.05,14.25-3.05,8.33,0,14.83,2.25,19.5,6.75,4.67,4.5,7,10.72,7,18.65,0,5.4-1.07,9.98-3.2,13.75-2.13,3.77-5.17,6.68-9.1,8.75-3.93,2.07-8.67,3.1-14.2,3.1ZM388.57,98.9c2.2,0,4.1-.48,5.7-1.45,1.6-.97,2.83-2.33,3.7-4.1.87-1.77,1.3-3.95,1.3-6.55,0-3.67-.95-6.58-2.85-8.75-1.9-2.17-4.52-3.25-7.85-3.25-2.27,0-4.2.48-5.8,1.45-1.6.97-2.82,2.35-3.65,4.15-.83,1.8-1.25,3.93-1.25,6.4,0,3.8.95,6.77,2.85,8.9,1.9,2.13,4.52,3.2,7.85,3.2Z"/>
  <path class="cls-1" d="M438.17,62.6v28.9c0,2.27.67,4.07,2,5.4,1.33,1.33,3.17,2,5.5,2,4,0,7.3-1.67,9.9-5l5.2,6.4c-3.47,8.07-9.73,12.1-18.8,12.1-6,0-10.68-1.73-14.05-5.2-3.37-3.47-5.05-8.27-5.05-14.4v-30.2h15.3ZM470.57,62.6v48.6h-11.6l-3.7-9.6v-39h15.3Z"/>
  <path class="cls-1" d="M481.17,111.2v-48.6h11.6l3.7,9.6v39h-15.3ZM513.57,111.2v-28.9c0-2.4-.65-4.25-1.95-5.55s-3.15-1.95-5.55-1.95c-4,0-7.3,1.67-9.9,5l-5.2-6.4c3.47-8,9.73-12,18.8-12,5.93,0,10.6,1.73,14,5.2,3.4,3.47,5.1,8.23,5.1,14.3v30.3h-15.3Z"/>
  <path class="cls-1" d="M559.77,112.4c-7.2,0-12.85-2.25-16.95-6.75s-6.15-10.78-6.15-18.85c0-5.27.93-9.8,2.8-13.6,1.87-3.8,4.52-6.72,7.95-8.75,3.43-2.03,7.55-3.05,12.35-3.05,9.07,0,15.07,4,18,12l-5.3,6.4c-2.33-3.33-5.5-5-9.5-5-2.2,0-4.08.48-5.65,1.45-1.57.97-2.77,2.35-3.6,4.15-.83,1.8-1.25,3.93-1.25,6.4,0,3.8.92,6.77,2.75,8.9,1.83,2.13,4.42,3.2,7.75,3.2,2,0,3.8-.42,5.4-1.25,1.6-.83,2.97-2.08,4.1-3.75l5.3,6.4c-1.47,4.07-3.7,7.1-6.7,9.1s-6.77,3-11.3,3ZM575.87,111.2l-3.7-9.6v-53.8l15.3-7.7v71.1h-11.6Z"/>
  <path class="cls-1" d="M625.16,129.1v-65h3.9l.6,9.6v53.1l-4.5,2.3ZM646.26,112.4c-7.47,0-13.37-3-17.7-9l.8-4.1c4.27,5.93,9.7,8.9,16.3,8.9,3.87,0,7.17-.82,9.9-2.45,2.73-1.63,4.82-3.98,6.25-7.05,1.43-3.07,2.15-6.73,2.15-11,0-6.47-1.62-11.52-4.85-15.15-3.23-3.63-7.72-5.45-13.45-5.45-3.27,0-6.27.73-9,2.2-2.73,1.47-5.17,3.67-7.3,6.6l-.8-4c2.13-3,4.67-5.25,7.6-6.75,2.93-1.5,6.3-2.25,10.1-2.25,6.93,0,12.38,2.18,16.35,6.55,3.97,4.37,5.95,10.45,5.95,18.25,0,5.13-.88,9.55-2.65,13.25-1.77,3.7-4.32,6.53-7.65,8.5-3.33,1.97-7.33,2.95-12,2.95Z"/>
  <path class="cls-1" d="M681.96,111.2v-47.1h3.9l.6,9.6v37.5h-4.5ZM685.86,77.2l-.8-4.5c1.73-3.27,4.07-5.72,7-7.35,2.93-1.63,6.4-2.45,10.4-2.45,1.6,0,3.1.2,4.5.6l-.6,4.3c-.67-.13-1.32-.25-1.95-.35-.63-.1-1.32-.15-2.05-.15-7.4,0-12.9,3.3-16.5,9.9Z"/>
  <path class="cls-1" d="M737.16,112.4c-7.33,0-13.08-2.2-17.25-6.6-4.17-4.4-6.25-10.43-6.25-18.1,0-5.2.93-9.65,2.8-13.35,1.87-3.7,4.55-6.53,8.05-8.5,3.5-1.96,7.72-2.95,12.65-2.95,7.33,0,13.05,2.18,17.15,6.55,4.1,4.37,6.15,10.45,6.15,18.25,0,5.13-.92,9.55-2.75,13.25-1.83,3.7-4.5,6.53-8,8.5s-7.68,2.95-12.55,2.95ZM737.16,108.2c3.87,0,7.22-.82,10.05-2.45,2.83-1.63,4.98-3.98,6.45-7.05,1.47-3.07,2.2-6.73,2.2-11,0-6.47-1.65-11.52-4.95-15.15-3.3-3.63-7.88-5.45-13.75-5.45-4,0-7.4.82-10.2,2.45-2.8,1.63-4.95,4-6.45,7.1-1.5,3.1-2.25,6.78-2.25,11.05,0,6.4,1.67,11.42,5,15.05,3.33,3.63,7.97,5.45,13.9,5.45Z"/>
  <path class="cls-1" d="M792.76,112.4c-6.93,0-12.38-2.2-16.35-6.6-3.97-4.4-5.95-10.43-5.95-18.1,0-5.2.9-9.65,2.7-13.35,1.8-3.7,4.37-6.53,7.7-8.5,3.33-1.96,7.3-2.95,11.9-2.95,7.6,0,13.53,3,17.8,9l-.8,4c-4.27-5.87-9.73-8.8-16.4-8.8-3.8,0-7.08.82-9.85,2.45-2.77,1.63-4.87,4-6.3,7.1-1.43,3.1-2.15,6.78-2.15,11.05,0,6.4,1.62,11.42,4.85,15.05,3.23,3.63,7.72,5.45,13.45,5.45,3.33,0,6.37-.73,9.1-2.2,2.73-1.47,5.17-3.7,7.3-6.7l.8,4.1c-2.13,3-4.68,5.25-7.65,6.75-2.97,1.5-6.35,2.25-10.15,2.25ZM810.06,111.2l-.6-9.6v-56.5l4.5-2.3v68.4h-3.9Z"/>
  <path class="cls-1" d="M834.56,64.1v30.8c0,4.13,1.17,7.38,3.5,9.75,2.33,2.37,5.6,3.55,9.8,3.55,6.67,0,12.13-2.97,16.4-8.9l.9,4.1c-4.4,6-10.4,9-18,9-5.33,0-9.52-1.53-12.55-4.6-3.03-3.07-4.55-7.27-4.55-12.6v-31.1h4.5ZM868.46,64.1v47.1h-3.9l-.6-9.6v-37.5h4.5Z"/>
  <path class="cls-1" d="M905.06,112.4c-7.27,0-12.95-2.2-17.05-6.6-4.1-4.4-6.15-10.43-6.15-18.1,0-5.2.92-9.65,2.75-13.35,1.83-3.7,4.48-6.53,7.95-8.5,3.47-1.96,7.63-2.95,12.5-2.95,9.2,0,15.87,3.8,20,11.4l-4.1,1.9c-1.67-2.93-3.82-5.18-6.45-6.75-2.63-1.57-5.79-2.35-9.45-2.35-3.87,0-7.2.82-10,2.45-2.8,1.63-4.93,4-6.4,7.1-1.47,3.1-2.2,6.78-2.2,11.05,0,6.4,1.63,11.42,4.9,15.05,3.27,3.63,7.83,5.45,13.7,5.45,3.67,0,6.82-.77,9.45-2.3,2.63-1.53,4.78-3.8,6.45-6.8l4.1,1.9c-4.13,7.6-10.8,11.4-20,11.4Z"/>
  <path class="cls-1" d="M932.66,68.2v-4.1h32v4.1h-32ZM957.06,112.4c-4.47,0-7.93-1.22-10.4-3.65-2.47-2.43-3.7-5.92-3.7-10.45v-46.2l4.5-2.3v48.3c0,3.27.87,5.77,2.6,7.5,1.73,1.73,4.2,2.6,7.4,2.6,1.47,0,2.85-.17,4.15-.5,1.3-.33,2.62-.83,3.95-1.5l1.5,3.8c-2.87,1.6-6.2,2.4-10,2.4Z"/>
  <path class="cls-1" d="M981.46,52.2c-1.13,0-1.98-.28-2.55-.85-.57-.57-.85-1.42-.85-2.55s.28-2,.85-2.6c.57-.6,1.42-.9,2.55-.9s2,.3,2.6.9.9,1.47.9,2.6-.3,1.98-.9,2.55c-.6.57-1.47.85-2.6.85ZM979.26,111.2v-47.1h4.5v47.1h-4.5Z"/>
  <path class="cls-1" d="M1020.66,112.4c-7.33,0-13.08-2.2-17.25-6.6-4.17-4.4-6.25-10.43-6.25-18.1,0-5.2.93-9.65,2.8-13.35,1.87-3.7,4.55-6.53,8.05-8.5,3.5-1.96,7.72-2.95,12.65-2.95,7.33,0,13.05,2.18,17.15,6.55,4.1,4.37,6.15,10.45,6.15,18.25,0,5.13-.92,9.55-2.75,13.25-1.83,3.7-4.5,6.53-8,8.5s-7.68,2.95-12.55,2.95ZM1020.66,108.2c3.87,0,7.22-.82,10.05-2.45,2.83-1.63,4.98-3.98,6.45-7.05,1.47-3.07,2.2-6.73,2.2-11,0-6.47-1.65-11.52-4.95-15.15-3.3-3.63-7.88-5.45-13.75-5.45-4,0-7.4.82-10.2,2.45-2.8,1.63-4.95,4-6.45,7.1-1.5,3.1-2.25,6.78-2.25,11.05,0,6.4,1.67,11.42,5,15.05,3.33,3.63,7.97,5.45,13.9,5.45Z"/>
  <path class="cls-1" d="M1057.36,111.2v-47.1h3.9l.6,9.6v37.5h-4.5ZM1091.26,111.2v-30.8c0-4.2-1.17-7.47-3.5-9.8-2.33-2.33-5.57-3.5-9.7-3.5-6.73,0-12.23,2.93-16.5,8.8l-.8-4c4.4-6,10.33-9,17.8-9,5.4,0,9.62,1.53,12.65,4.6,3.03,3.07,4.55,7.27,4.55,12.6v31.1h-4.5Z"/>
  <path class="cls-1" d="M1126.06,112.4c-3.87,0-7.33-.62-10.4-1.85-3.07-1.23-5.83-3.02-8.3-5.35l2.8-3.1c2.2,2.07,4.62,3.63,7.25,4.7,2.63,1.07,5.52,1.6,8.65,1.6,4.13,0,7.43-.87,9.9-2.6,2.46-1.73,3.7-4.07,3.7-7,0-2.53-.68-4.42-2.05-5.65-1.37-1.23-3.12-2.13-5.25-2.7-2.13-.57-4.4-1.05-6.8-1.45-2.07-.27-4.1-.63-6.1-1.1-2-.47-3.82-1.13-5.45-2-1.63-.87-2.95-2.08-3.95-3.65-1-1.57-1.5-3.62-1.5-6.15,0-2.73.73-5.08,2.2-7.05,1.47-1.97,3.5-3.48,6.1-4.55,2.6-1.07,5.7-1.6,9.3-1.6,7,0,12.6,2,16.8,6l-2.8,3.1c-1.93-1.73-4.05-3.02-6.35-3.85-2.3-.83-4.85-1.25-7.65-1.25-4,0-7.18.82-9.55,2.45-2.37,1.63-3.55,3.82-3.55,6.55,0,2.4.65,4.18,1.95,5.35,1.3,1.17,2.98,2.02,5.05,2.55,2.07.53,4.3.97,6.7,1.3,2.07.27,4.12.63,6.15,1.1,2.03.47,3.9,1.17,5.6,2.1,1.7.93,3.07,2.22,4.1,3.85,1.03,1.63,1.55,3.78,1.55,6.45,0,2.8-.73,5.23-2.2,7.3-1.47,2.07-3.57,3.67-6.3,4.8-2.73,1.13-5.93,1.7-9.6,1.7Z"/>
</svg>