<?xml version="1.0" encoding="UTF-8"?>
<svg id="Ebene_1" data-name="Ebene 1" xmlns="http://www.w3.org/2000/svg" viewBox="0 0 718.26 718.27">
  <defs>
    <style>
      .cls-1 {
        fill: #1d1d1b;
      }

      .cls-1, .cls-2 {
        stroke-width: 0px;
      }

      .cls-2 {
        fill: #fff;
      }
    </style>
  </defs>
  <rect class="cls-2" width="718.26" height="718.26"/>
  <g>
    <path class="cls-1" d="M94.93,352.84c-4.02,0-7.7-.56-11.05-1.67-3.34-1.11-6.37-2.78-9.1-5.01l7.24-8.91c1.86,1.24,3.81,2.27,5.85,3.11,2.04.83,4.39,1.25,7.05,1.25,1.92,0,3.43-.31,4.55-.93,1.11-.62,1.67-1.52,1.67-2.69,0-.87-.34-1.55-1.02-2.04-.68-.49-1.61-.87-2.79-1.11-1.18-.25-2.48-.46-3.9-.65-1.8-.25-3.7-.59-5.71-1.02-2.01-.43-3.93-1.13-5.75-2.09-1.83-.96-3.29-2.3-4.41-4.04-1.11-1.73-1.67-4.02-1.67-6.87,0-3.03.82-5.65,2.46-7.84,1.64-2.2,3.95-3.88,6.92-5.06,2.97-1.18,6.47-1.76,10.49-1.76,7.43,0,13.58,1.86,18.47,5.57l-7.24,8.91c-1.61-.93-3.29-1.72-5.06-2.37-1.76-.65-3.82-.97-6.17-.97-1.73,0-3.11.26-4.13.79-1.02.53-1.53,1.28-1.53,2.27,0,.8.31,1.42.93,1.86.62.43,1.48.76,2.6.98,1.11.22,2.29.42,3.53.6,1.86.25,3.82.57,5.89.97,2.07.4,4.05,1.08,5.94,2.04,1.89.96,3.42,2.35,4.6,4.18,1.17,1.83,1.76,4.22,1.76,7.19,0,3.16-.84,5.88-2.51,8.17-1.67,2.29-4.04,4.05-7.1,5.29s-6.67,1.86-10.81,1.86Z"/>
    <path class="cls-1" d="M145.14,352.84c-7.67,0-13.69-2.09-18.05-6.27-4.36-4.18-6.54-10.01-6.54-17.5,0-4.89.97-9.1,2.92-12.62,1.95-3.53,4.76-6.23,8.45-8.12,3.68-1.89,8.09-2.83,13.23-2.83,7.73,0,13.77,2.09,18.1,6.27,4.33,4.18,6.5,9.95,6.5,17.31,0,5.01-.99,9.27-2.97,12.76-1.98,3.5-4.8,6.2-8.45,8.12-3.65,1.92-8.05,2.88-13.18,2.88ZM145.14,340.31c2.04,0,3.81-.45,5.29-1.35,1.49-.9,2.63-2.17,3.44-3.81.8-1.64,1.21-3.67,1.21-6.08,0-3.4-.88-6.11-2.65-8.12-1.76-2.01-4.19-3.02-7.29-3.02-2.1,0-3.9.45-5.38,1.35-1.49.9-2.62,2.18-3.39,3.85-.77,1.67-1.16,3.65-1.16,5.94,0,3.53.88,6.28,2.65,8.26,1.76,1.98,4.19,2.97,7.29,2.97Z"/>
    <path class="cls-1" d="M191.18,306.61v26.83c0,2.1.62,3.77,1.86,5.01,1.24,1.24,2.94,1.86,5.11,1.86,3.71,0,6.78-1.55,9.19-4.64l4.83,5.94c-3.22,7.49-9.04,11.23-17.45,11.23-5.57,0-9.92-1.61-13.04-4.83-3.12-3.22-4.69-7.67-4.69-13.37v-28.03h14.2ZM221.26,306.61v45.11h-10.77l-3.44-8.91v-36.2h14.2Z"/>
    <path class="cls-1" d="M228.13,318.68v-12.07h34.07v12.07h-34.07ZM252.91,352.84c-5.51,0-9.78-1.52-12.81-4.55-3.03-3.03-4.55-7.3-4.55-12.81v-40.47l14.2-3.53v43.07c0,1.86.49,3.28,1.49,4.27.99.99,2.41,1.48,4.27,1.48.99,0,1.95-.11,2.88-.32s1.86-.48,2.78-.79l3.25,11.42c-3.4,1.48-7.24,2.23-11.51,2.23Z"/>
    <path class="cls-1" d="M270.64,351.73v-62.75l14.2-3.62v66.37h-14.2ZM300.71,351.73v-26.83c0-2.23-.6-3.94-1.81-5.15s-2.92-1.81-5.15-1.81c-3.71,0-6.78,1.55-9.19,4.64l-4.83-5.94c3.22-7.43,9.03-11.14,17.45-11.14,5.51,0,9.84,1.61,12.99,4.83,3.16,3.22,4.73,7.64,4.73,13.27v28.13h-14.2Z"/>
    <path class="cls-1" d="M324.2,351.73v-62.75l14.2-3.62v57.46l-3.43,8.91h-10.77ZM349.81,352.84c-8.35,0-13.86-3.74-16.52-11.23l4.83-5.94c2.17,3.1,5.11,4.64,8.82,4.64,2.04,0,3.79-.45,5.24-1.35,1.45-.9,2.57-2.17,3.34-3.81.77-1.64,1.16-3.67,1.16-6.08,0-3.4-.87-6.11-2.6-8.12-1.73-2.01-4.12-3.02-7.15-3.02-1.92,0-3.59.39-5.01,1.16-1.42.78-2.69,1.94-3.81,3.48l-4.83-5.94c1.3-3.71,3.34-6.5,6.13-8.35,2.78-1.86,6.25-2.78,10.4-2.78,6.74,0,12.02,2.09,15.83,6.27,3.81,4.18,5.71,9.95,5.71,17.31,0,5.01-.87,9.27-2.6,12.76-1.73,3.5-4.19,6.2-7.38,8.12-3.19,1.92-7.04,2.88-11.56,2.88Z"/>
    <path class="cls-1" d="M401.7,352.84c-7.67,0-13.69-2.09-18.05-6.27-4.36-4.18-6.54-10.01-6.54-17.5,0-4.89.97-9.1,2.92-12.62,1.95-3.53,4.76-6.23,8.45-8.12,3.68-1.89,8.09-2.83,13.23-2.83,7.73,0,13.77,2.09,18.1,6.27,4.33,4.18,6.5,9.95,6.5,17.31,0,5.01-.99,9.27-2.97,12.76-1.98,3.5-4.8,6.2-8.45,8.12-3.65,1.92-8.05,2.88-13.18,2.88ZM401.7,340.31c2.04,0,3.81-.45,5.29-1.35,1.49-.9,2.63-2.17,3.44-3.81.8-1.64,1.21-3.67,1.21-6.08,0-3.4-.88-6.11-2.65-8.12-1.76-2.01-4.19-3.02-7.29-3.02-2.1,0-3.9.45-5.38,1.35-1.49.9-2.62,2.18-3.39,3.85-.77,1.67-1.16,3.65-1.16,5.94,0,3.53.88,6.28,2.65,8.26,1.76,1.98,4.19,2.97,7.29,2.97Z"/>
    <path class="cls-1" d="M447.74,306.61v26.83c0,2.1.62,3.77,1.86,5.01,1.24,1.24,2.94,1.86,5.11,1.86,3.71,0,6.78-1.55,9.19-4.64l4.83,5.94c-3.22,7.49-9.04,11.23-17.45,11.23-5.57,0-9.92-1.61-13.04-4.83-3.12-3.22-4.69-7.67-4.69-13.37v-28.03h14.2ZM477.81,306.61v45.11h-10.77l-3.44-8.91v-36.2h14.2Z"/>
    <path class="cls-1" d="M487.65,351.73v-45.11h10.77l3.43,8.91v36.2h-14.2ZM517.73,351.73v-26.83c0-2.23-.6-3.94-1.81-5.15-1.21-1.21-2.92-1.81-5.15-1.81-3.71,0-6.78,1.55-9.19,4.64l-4.83-5.94c3.22-7.43,9.03-11.14,17.45-11.14,5.51,0,9.84,1.61,12.99,4.83,3.16,3.22,4.73,7.64,4.73,13.27v28.13h-14.2Z"/>
    <path class="cls-1" d="M560.61,352.84c-6.68,0-11.93-2.09-15.73-6.27-3.81-4.18-5.71-10.01-5.71-17.5,0-4.89.87-9.1,2.6-12.62,1.73-3.53,4.19-6.23,7.38-8.12,3.19-1.89,7.01-2.83,11.46-2.83,8.41,0,13.98,3.71,16.71,11.14l-4.92,5.94c-2.17-3.09-5.11-4.64-8.82-4.64-2.04,0-3.79.45-5.24,1.35-1.45.9-2.57,2.18-3.34,3.85-.77,1.67-1.16,3.65-1.16,5.94,0,3.53.85,6.28,2.55,8.26,1.7,1.98,4.1,2.97,7.19,2.97,1.86,0,3.53-.39,5.01-1.16,1.48-.77,2.75-1.93,3.81-3.48l4.92,5.94c-1.36,3.78-3.43,6.59-6.22,8.45-2.78,1.86-6.28,2.78-10.49,2.78ZM575.55,351.73l-3.43-8.91v-53.84l14.2-3.62v66.37h-10.77Z"/>
  </g>
  <g>
    <path class="cls-1" d="M158.99,443.76v-62h3.62l.56,8.91v52.07l-4.18,1.02ZM178.57,426.59c-6.93,0-12.41-2.78-16.43-8.35l.74-3.81c3.96,5.51,9,8.26,15.13,8.26,3.59,0,6.65-.76,9.19-2.27,2.54-1.52,4.47-3.7,5.8-6.54,1.33-2.85,2-6.25,2-10.21,0-6-1.5-10.69-4.5-14.06-3-3.37-7.16-5.06-12.48-5.06-3.03,0-5.82.68-8.35,2.04-2.54,1.36-4.8,3.4-6.78,6.13l-.74-3.71c1.98-2.79,4.33-4.87,7.05-6.27,2.72-1.39,5.85-2.09,9.37-2.09,6.44,0,11.49,2.03,15.18,6.08,3.68,4.05,5.52,9.7,5.52,16.94,0,4.77-.82,8.86-2.46,12.3-1.64,3.43-4.01,6.07-7.1,7.89-3.1,1.82-6.81,2.74-11.14,2.74Z"/>
    <path class="cls-1" d="M211.71,425.48v-43.72h3.62l.56,8.91v34.81h-4.18ZM215.33,393.92l-.74-4.18c1.61-3.03,3.77-5.31,6.5-6.82,2.72-1.52,5.94-2.27,9.65-2.27,1.48,0,2.88.19,4.18.56l-.56,3.99c-.62-.12-1.22-.23-1.81-.32-.59-.09-1.22-.14-1.9-.14-6.87,0-11.97,3.06-15.32,9.19Z"/>
    <path class="cls-1" d="M263.04,426.59c-6.81,0-12.15-2.04-16.01-6.13-3.87-4.08-5.8-9.68-5.8-16.8,0-4.83.87-8.96,2.6-12.39,1.73-3.43,4.22-6.06,7.47-7.89,3.25-1.82,7.16-2.74,11.74-2.74,6.81,0,12.11,2.03,15.92,6.08,3.81,4.05,5.71,9.7,5.71,16.94,0,4.77-.85,8.86-2.55,12.3-1.7,3.43-4.18,6.07-7.43,7.89-3.25,1.82-7.13,2.74-11.65,2.74ZM263.04,422.69c3.59,0,6.7-.76,9.33-2.27,2.63-1.52,4.63-3.7,5.99-6.54,1.36-2.85,2.04-6.25,2.04-10.21,0-6-1.53-10.69-4.59-14.06-3.06-3.37-7.32-5.06-12.76-5.06-3.71,0-6.87.76-9.47,2.27-2.6,1.52-4.6,3.71-5.99,6.59-1.39,2.88-2.09,6.3-2.09,10.26,0,5.94,1.55,10.6,4.64,13.97,3.09,3.37,7.39,5.06,12.9,5.06Z"/>
    <path class="cls-1" d="M314.65,426.59c-6.44,0-11.49-2.04-15.18-6.13-3.68-4.08-5.52-9.68-5.52-16.8,0-4.83.83-8.96,2.51-12.39s4.05-6.06,7.15-7.89c3.09-1.82,6.78-2.74,11.04-2.74,7.05,0,12.56,2.78,16.52,8.35l-.74,3.71c-3.96-5.45-9.04-8.17-15.22-8.17-3.53,0-6.58.76-9.14,2.27-2.57,1.52-4.52,3.71-5.85,6.59-1.33,2.88-2,6.3-2,10.26,0,5.94,1.5,10.6,4.5,13.97,3,3.37,7.16,5.06,12.48,5.06,3.09,0,5.91-.68,8.45-2.04,2.54-1.36,4.79-3.44,6.78-6.22l.74,3.81c-1.98,2.79-4.35,4.87-7.1,6.27-2.75,1.39-5.89,2.09-9.42,2.09ZM330.7,425.48l-.56-8.91v-55.14l4.18-1.11v65.16h-3.62Z"/>
    <path class="cls-1" d="M353.45,381.76v28.59c0,3.84,1.08,6.85,3.25,9.05,2.16,2.2,5.2,3.3,9.1,3.3,6.19,0,11.26-2.75,15.22-8.26l.83,3.81c-4.08,5.57-9.65,8.35-16.71,8.35-4.95,0-8.83-1.42-11.65-4.27-2.82-2.85-4.22-6.74-4.22-11.7v-28.87h4.18ZM384.91,381.76v43.72h-3.62l-.56-8.91v-34.81h4.18Z"/>
    <path class="cls-1" d="M418.88,426.59c-6.75,0-12.02-2.04-15.83-6.13-3.81-4.08-5.71-9.68-5.71-16.8,0-4.83.85-8.96,2.55-12.39,1.7-3.43,4.16-6.06,7.38-7.89,3.22-1.82,7.09-2.74,11.6-2.74,8.54,0,14.73,3.53,18.56,10.58l-3.81,1.76c-1.55-2.72-3.54-4.81-5.99-6.27-2.44-1.45-5.37-2.18-8.77-2.18-3.59,0-6.68.76-9.28,2.27-2.6,1.52-4.58,3.71-5.94,6.59-1.36,2.88-2.04,6.3-2.04,10.26,0,5.94,1.52,10.6,4.55,13.97,3.03,3.37,7.27,5.06,12.72,5.06,3.4,0,6.33-.71,8.77-2.14,2.44-1.42,4.44-3.53,5.99-6.31l3.81,1.76c-3.84,7.05-10.02,10.58-18.56,10.58Z"/>
    <path class="cls-1" d="M444.5,385.56v-3.81h29.7v3.81h-29.7ZM467.15,426.59c-4.15,0-7.36-1.13-9.65-3.39-2.29-2.26-3.44-5.49-3.44-9.7v-44.55l4.18-1.02v45.39c0,3.03.8,5.35,2.41,6.96,1.61,1.61,3.9,2.41,6.87,2.41,1.36,0,2.65-.15,3.85-.46,1.21-.31,2.43-.77,3.67-1.39l1.39,3.53c-2.66,1.48-5.75,2.23-9.28,2.23Z"/>
    <path class="cls-1" d="M489.8,370.71c-1.05,0-1.84-.26-2.37-.79-.53-.52-.79-1.31-.79-2.37s.26-1.86.79-2.41c.52-.56,1.31-.84,2.37-.84s1.86.28,2.41.84c.56.56.84,1.36.84,2.41s-.28,1.84-.84,2.37c-.56.53-1.36.79-2.41.79ZM487.76,425.48v-43.72h4.18v43.72h-4.18Z"/>
    <path class="cls-1" d="M526.18,426.59c-6.81,0-12.15-2.04-16.01-6.13-3.87-4.08-5.8-9.68-5.8-16.8,0-4.83.87-8.96,2.6-12.39,1.73-3.43,4.22-6.06,7.47-7.89,3.25-1.82,7.16-2.74,11.74-2.74,6.81,0,12.11,2.03,15.92,6.08,3.81,4.05,5.71,9.7,5.71,16.94,0,4.77-.85,8.86-2.55,12.3-1.7,3.43-4.18,6.07-7.43,7.89-3.25,1.82-7.13,2.74-11.65,2.74ZM526.18,422.69c3.59,0,6.7-.76,9.33-2.27,2.63-1.52,4.63-3.7,5.99-6.54,1.36-2.85,2.04-6.25,2.04-10.21,0-6-1.53-10.69-4.59-14.06-3.06-3.37-7.32-5.06-12.76-5.06-3.71,0-6.87.76-9.47,2.27-2.6,1.52-4.6,3.71-5.99,6.59-1.39,2.88-2.09,6.3-2.09,10.26,0,5.94,1.55,10.6,4.64,13.97,3.09,3.37,7.39,5.06,12.9,5.06Z"/>
    <path class="cls-1" d="M560.25,425.48v-43.72h3.62l.56,8.91v34.81h-4.18ZM591.72,425.48v-28.59c0-3.9-1.08-6.93-3.25-9.1-2.17-2.17-5.17-3.25-9-3.25-6.25,0-11.36,2.72-15.32,8.17l-.74-3.71c4.08-5.57,9.59-8.35,16.52-8.35,5.01,0,8.93,1.42,11.74,4.27,2.82,2.85,4.22,6.75,4.22,11.7v28.87h-4.18Z"/>
    <path class="cls-1" d="M624.02,426.59c-3.59,0-6.81-.57-9.65-1.72-2.85-1.14-5.42-2.8-7.7-4.97l2.6-2.88c2.04,1.92,4.28,3.37,6.73,4.36,2.44.99,5.12,1.48,8.03,1.48,3.84,0,6.9-.8,9.19-2.41,2.29-1.61,3.44-3.77,3.44-6.5,0-2.35-.64-4.1-1.9-5.24-1.27-1.14-2.89-1.98-4.87-2.51-1.98-.52-4.08-.97-6.31-1.35-1.92-.25-3.81-.59-5.66-1.02-1.86-.43-3.54-1.05-5.06-1.86-1.52-.8-2.74-1.93-3.67-3.39s-1.39-3.36-1.39-5.71c0-2.54.68-4.72,2.04-6.54,1.36-1.82,3.25-3.23,5.66-4.22,2.41-.99,5.29-1.48,8.63-1.48,6.5,0,11.7,1.86,15.59,5.57l-2.6,2.88c-1.8-1.61-3.76-2.8-5.89-3.57-2.13-.77-4.5-1.16-7.1-1.16-3.71,0-6.67.76-8.86,2.27-2.2,1.52-3.3,3.54-3.3,6.08,0,2.23.6,3.88,1.81,4.97,1.21,1.08,2.77,1.87,4.69,2.37,1.92.5,3.99.9,6.22,1.21,1.92.25,3.82.59,5.71,1.02,1.89.43,3.62,1.08,5.2,1.95,1.58.87,2.85,2.06,3.81,3.57.96,1.52,1.44,3.51,1.44,5.99,0,2.6-.68,4.86-2.04,6.78-1.36,1.92-3.31,3.4-5.85,4.46-2.54,1.05-5.51,1.58-8.91,1.58Z"/>
  </g>
</svg>