<?xml version="1.0" encoding="UTF-8"?>
<svg id="Ebene_1" data-name="Ebene 1" xmlns="http://www.w3.org/2000/svg" viewBox="0 0 718.26 280.99">
  <defs>
    <style>
      .cls-1 {
        fill: #1d1d1b;
      }

      .cls-1, .cls-2 {
        stroke-width: 0px;
      }

      .cls-2 {
        fill: #fff;
      }
    </style>
  </defs>
  <rect class="cls-2" y="-.85" width="718.26" height="281.84"/>
  <g>
    <path class="cls-1" d="M66.65,132.94c-4.46,0-8.53-.62-12.23-1.85-3.7-1.23-7.06-3.08-10.08-5.55l8.02-9.87c2.06,1.37,4.21,2.52,6.48,3.44,2.26.92,4.87,1.39,7.81,1.39,2.12,0,3.8-.34,5.04-1.03,1.23-.68,1.85-1.68,1.85-2.98,0-.96-.38-1.71-1.13-2.26-.76-.55-1.78-.96-3.08-1.23-1.3-.27-2.74-.51-4.32-.72-1.99-.27-4.1-.65-6.32-1.13-2.23-.48-4.35-1.25-6.37-2.31-2.02-1.06-3.65-2.55-4.88-4.47-1.23-1.92-1.85-4.46-1.85-7.61,0-3.36.91-6.25,2.72-8.69,1.82-2.43,4.37-4.3,7.66-5.6,3.29-1.3,7.16-1.95,11.62-1.95,8.22,0,15.04,2.06,20.46,6.17l-8.02,9.87c-1.78-1.03-3.65-1.9-5.6-2.62-1.95-.72-4.23-1.08-6.84-1.08-1.92,0-3.44.29-4.58.87-1.13.58-1.7,1.42-1.7,2.52,0,.89.34,1.58,1.03,2.06.68.48,1.64.84,2.88,1.08,1.23.24,2.54.46,3.91.67,2.06.27,4.23.63,6.53,1.08,2.29.45,4.49,1.2,6.58,2.26,2.09,1.06,3.79,2.61,5.09,4.63,1.3,2.02,1.95,4.68,1.95,7.97,0,3.5-.93,6.51-2.78,9.05-1.85,2.54-4.47,4.49-7.86,5.86s-7.39,2.06-11.98,2.06Z"/>
    <path class="cls-1" d="M122.26,132.94c-8.5,0-15.17-2.31-20-6.94-4.83-4.63-7.25-11.09-7.25-19.38,0-5.41,1.08-10.08,3.24-13.98,2.16-3.91,5.28-6.9,9.36-9,4.08-2.09,8.96-3.13,14.65-3.13,8.57,0,15.25,2.31,20.05,6.94,4.8,4.63,7.2,11.02,7.2,19.17,0,5.55-1.1,10.26-3.29,14.14-2.19,3.87-5.31,6.87-9.36,9-4.04,2.12-8.91,3.19-14.6,3.19ZM122.26,119.06c2.26,0,4.21-.5,5.86-1.49,1.65-.99,2.91-2.4,3.8-4.22.89-1.82,1.34-4.06,1.34-6.73,0-3.77-.98-6.77-2.93-9-1.95-2.23-4.64-3.34-8.07-3.34-2.33,0-4.32.5-5.96,1.49-1.65.99-2.9,2.42-3.75,4.27-.86,1.85-1.29,4.04-1.29,6.58,0,3.91.98,6.96,2.93,9.15,1.95,2.19,4.64,3.29,8.07,3.29Z"/>
    <path class="cls-1" d="M173.26,81.74v29.71c0,2.33.68,4.18,2.06,5.55,1.37,1.37,3.25,2.06,5.65,2.06,4.11,0,7.5-1.71,10.18-5.14l5.35,6.58c-3.57,8.29-10.01,12.44-19.33,12.44-6.17,0-10.98-1.78-14.45-5.35-3.46-3.56-5.19-8.5-5.19-14.8v-31.05h15.73ZM206.57,81.74v49.96h-11.93l-3.8-9.87v-40.1h15.73Z"/>
    <path class="cls-1" d="M214.17,95.1v-13.37h37.73v13.37h-37.73ZM241.62,132.94c-6.1,0-10.83-1.68-14.19-5.04-3.36-3.36-5.04-8.09-5.04-14.19v-44.83l15.73-3.91v47.7c0,2.06.55,3.63,1.65,4.73,1.09,1.1,2.67,1.64,4.73,1.64,1.1,0,2.16-.12,3.19-.36s2.06-.53,3.08-.87l3.6,12.65c-3.77,1.64-8.02,2.47-12.75,2.47Z"/>
    <path class="cls-1" d="M261.26,131.7V62.2l15.73-4.01v73.51h-15.73ZM294.57,131.7v-29.71c0-2.47-.67-4.37-2-5.71s-3.24-2-5.71-2c-4.11,0-7.5,1.71-10.18,5.14l-5.35-6.58c3.56-8.22,10.01-12.34,19.33-12.34,6.1,0,10.9,1.78,14.39,5.35,3.5,3.56,5.24,8.47,5.24,14.7v31.15h-15.73Z"/>
    <path class="cls-1" d="M320.58,131.7V62.2l15.73-4.01v63.64l-3.8,9.87h-11.93ZM348.96,132.94c-9.25,0-15.35-4.15-18.3-12.44l5.35-6.58c2.4,3.43,5.65,5.14,9.77,5.14,2.26,0,4.2-.5,5.81-1.49,1.61-.99,2.84-2.4,3.7-4.22.86-1.82,1.29-4.06,1.29-6.73,0-3.77-.96-6.77-2.88-9-1.92-2.23-4.56-3.34-7.92-3.34-2.12,0-3.98.43-5.55,1.28-1.58.86-2.98,2.14-4.21,3.86l-5.35-6.58c1.44-4.11,3.7-7.2,6.79-9.25,3.08-2.06,6.92-3.08,11.51-3.08,7.47,0,13.31,2.31,17.53,6.94,4.22,4.63,6.32,11.02,6.32,19.17,0,5.55-.96,10.26-2.88,14.14-1.92,3.87-4.64,6.87-8.17,9-3.53,2.12-7.8,3.19-12.8,3.19Z"/>
    <path class="cls-1" d="M406.42,132.94c-8.5,0-15.17-2.31-20-6.94-4.83-4.63-7.25-11.09-7.25-19.38,0-5.41,1.08-10.08,3.24-13.98,2.16-3.91,5.28-6.9,9.36-9,4.08-2.09,8.96-3.13,14.65-3.13,8.57,0,15.25,2.31,20.05,6.94,4.8,4.63,7.2,11.02,7.2,19.17,0,5.55-1.1,10.26-3.29,14.14-2.19,3.87-5.31,6.87-9.36,9-4.04,2.12-8.91,3.19-14.6,3.19ZM406.42,119.06c2.26,0,4.21-.5,5.86-1.49,1.65-.99,2.91-2.4,3.8-4.22.89-1.82,1.34-4.06,1.34-6.73,0-3.77-.98-6.77-2.93-9-1.95-2.23-4.64-3.34-8.07-3.34-2.33,0-4.32.5-5.96,1.49-1.65.99-2.9,2.42-3.75,4.27-.86,1.85-1.29,4.04-1.29,6.58,0,3.91.98,6.96,2.93,9.15,1.95,2.19,4.64,3.29,8.07,3.29Z"/>
    <path class="cls-1" d="M457.42,81.74v29.71c0,2.33.68,4.18,2.06,5.55,1.37,1.37,3.25,2.06,5.65,2.06,4.11,0,7.5-1.71,10.18-5.14l5.35,6.58c-3.57,8.29-10.01,12.44-19.33,12.44-6.17,0-10.98-1.78-14.45-5.35-3.46-3.56-5.19-8.5-5.19-14.8v-31.05h15.73ZM490.73,81.74v49.96h-11.93l-3.8-9.87v-40.1h15.73Z"/>
    <path class="cls-1" d="M501.62,131.7v-49.96h11.93l3.8,9.87v40.1h-15.73ZM534.93,131.7v-29.71c0-2.47-.67-4.37-2-5.71s-3.24-2-5.71-2c-4.11,0-7.5,1.71-10.18,5.14l-5.35-6.58c3.56-8.22,10.01-12.34,19.33-12.34,6.1,0,10.9,1.78,14.39,5.35,3.5,3.56,5.24,8.47,5.24,14.7v31.15h-15.73Z"/>
    <path class="cls-1" d="M582.43,132.94c-7.4,0-13.21-2.31-17.43-6.94-4.21-4.63-6.32-11.09-6.32-19.38,0-5.41.96-10.08,2.88-13.98,1.92-3.91,4.64-6.9,8.17-9,3.53-2.09,7.76-3.13,12.7-3.13,9.32,0,15.49,4.11,18.51,12.34l-5.45,6.58c-2.4-3.43-5.65-5.14-9.77-5.14-2.26,0-4.2.5-5.81,1.49-1.61.99-2.84,2.42-3.7,4.27-.86,1.85-1.29,4.04-1.29,6.58,0,3.91.94,6.96,2.83,9.15,1.88,2.19,4.54,3.29,7.97,3.29,2.06,0,3.91-.43,5.55-1.29,1.64-.86,3.05-2.14,4.21-3.86l5.45,6.58c-1.51,4.18-3.8,7.3-6.89,9.36-3.08,2.06-6.96,3.08-11.62,3.08ZM598.98,131.7l-3.8-9.87v-59.63l15.73-4.01v73.51h-11.93Z"/>
  </g>
  <g>
    <path class="cls-1" d="M137.6,233.65v-68.68h4.01l.62,9.87v57.67l-4.63,1.13ZM159.29,214.63c-7.68,0-13.74-3.08-18.2-9.25l.82-4.21c4.38,6.1,9.97,9.15,16.76,9.15,3.97,0,7.37-.84,10.18-2.52,2.81-1.68,4.95-4.09,6.43-7.25,1.47-3.15,2.21-6.92,2.21-11.31,0-6.65-1.66-11.84-4.99-15.58-3.33-3.74-7.93-5.6-13.83-5.6-3.36,0-6.44.75-9.25,2.26-2.81,1.51-5.31,3.77-7.5,6.79l-.82-4.11c2.19-3.08,4.8-5.4,7.81-6.94,3.01-1.54,6.48-2.31,10.38-2.31,7.13,0,12.73,2.25,16.81,6.73,4.08,4.49,6.12,10.74,6.12,18.76,0,5.28-.91,9.82-2.72,13.62-1.82,3.8-4.44,6.72-7.86,8.74-3.43,2.02-7.54,3.03-12.34,3.03Z"/>
    <path class="cls-1" d="M195.99,213.39v-48.42h4.01l.62,9.87v38.55h-4.63ZM200,178.44l-.82-4.63c1.78-3.36,4.18-5.88,7.2-7.56,3.02-1.68,6.58-2.52,10.69-2.52,1.64,0,3.19.21,4.63.62l-.62,4.42c-.69-.14-1.35-.26-2-.36-.65-.1-1.35-.15-2.11-.15-7.61,0-13.26,3.39-16.96,10.18Z"/>
    <path class="cls-1" d="M252.84,214.63c-7.54,0-13.45-2.26-17.73-6.79-4.28-4.52-6.43-10.73-6.43-18.61,0-5.35.96-9.92,2.88-13.72,1.92-3.8,4.68-6.72,8.28-8.74,3.6-2.02,7.93-3.03,13.01-3.03,7.54,0,13.42,2.25,17.63,6.73,4.22,4.49,6.32,10.74,6.32,18.76,0,5.28-.94,9.82-2.83,13.62-1.89,3.8-4.63,6.72-8.22,8.74-3.6,2.02-7.9,3.03-12.9,3.03ZM252.84,210.31c3.97,0,7.42-.84,10.33-2.52,2.91-1.68,5.12-4.09,6.63-7.25,1.51-3.15,2.26-6.92,2.26-11.31,0-6.65-1.7-11.84-5.09-15.58-3.39-3.74-8.11-5.6-14.14-5.6-4.11,0-7.61.84-10.49,2.52-2.88,1.68-5.09,4.11-6.63,7.3-1.54,3.19-2.31,6.97-2.31,11.36,0,6.58,1.71,11.74,5.14,15.47,3.43,3.74,8.19,5.6,14.29,5.6Z"/>
    <path class="cls-1" d="M310,214.63c-7.13,0-12.73-2.26-16.81-6.79-4.08-4.52-6.12-10.73-6.12-18.61,0-5.35.92-9.92,2.78-13.72s4.49-6.72,7.92-8.74c3.43-2.02,7.5-3.03,12.23-3.03,7.81,0,13.91,3.08,18.3,9.25l-.82,4.11c-4.39-6.03-10.01-9.05-16.86-9.05-3.91,0-7.28.84-10.13,2.52-2.84,1.68-5,4.11-6.48,7.3-1.47,3.19-2.21,6.97-2.21,11.36,0,6.58,1.66,11.74,4.99,15.47,3.32,3.74,7.93,5.6,13.83,5.6,3.43,0,6.54-.75,9.36-2.26,2.81-1.51,5.31-3.8,7.5-6.89l.82,4.21c-2.19,3.08-4.82,5.4-7.86,6.94-3.05,1.54-6.53,2.31-10.44,2.31ZM327.79,213.39l-.62-9.87v-61.07l4.63-1.23v72.17h-4.01Z"/>
    <path class="cls-1" d="M352.98,164.97v31.67c0,4.25,1.2,7.59,3.6,10.02,2.4,2.43,5.76,3.65,10.08,3.65,6.85,0,12.47-3.05,16.86-9.15l.92,4.21c-4.52,6.17-10.69,9.25-18.5,9.25-5.48,0-9.79-1.58-12.9-4.73-3.12-3.15-4.68-7.47-4.68-12.95v-31.97h4.63ZM387.83,164.97v48.42h-4.01l-.62-9.87v-38.55h4.63Z"/>
    <path class="cls-1" d="M425.46,214.63c-7.47,0-13.31-2.26-17.53-6.79-4.21-4.52-6.32-10.73-6.32-18.61,0-5.35.94-9.92,2.83-13.72,1.88-3.8,4.61-6.72,8.17-8.74,3.56-2.02,7.85-3.03,12.85-3.03,9.46,0,16.31,3.91,20.56,11.72l-4.21,1.95c-1.71-3.01-3.92-5.33-6.63-6.94-2.71-1.61-5.95-2.42-9.71-2.42-3.98,0-7.4.84-10.28,2.52-2.88,1.68-5.07,4.11-6.58,7.3-1.51,3.19-2.26,6.97-2.26,11.36,0,6.58,1.68,11.74,5.04,15.47,3.36,3.74,8.05,5.6,14.08,5.6,3.77,0,7.01-.79,9.71-2.37,2.71-1.58,4.92-3.91,6.63-6.99l4.21,1.95c-4.25,7.81-11.1,11.72-20.56,11.72Z"/>
    <path class="cls-1" d="M453.83,169.18v-4.21h32.9v4.21h-32.9ZM478.91,214.63c-4.59,0-8.16-1.25-10.69-3.75-2.54-2.5-3.8-6.08-3.8-10.74v-49.35l4.63-1.13v50.27c0,3.36.89,5.93,2.67,7.71,1.78,1.78,4.32,2.67,7.61,2.67,1.51,0,2.93-.17,4.27-.51,1.34-.34,2.69-.86,4.06-1.54l1.54,3.91c-2.95,1.64-6.37,2.47-10.28,2.47Z"/>
    <path class="cls-1" d="M504,152.74c-1.17,0-2.04-.29-2.62-.87-.58-.58-.87-1.46-.87-2.62s.29-2.06.87-2.67c.58-.62,1.46-.93,2.62-.93s2.06.31,2.67.93c.62.62.93,1.51.93,2.67s-.31,2.04-.93,2.62c-.62.58-1.51.87-2.67.87ZM501.74,213.39v-48.42h4.63v48.42h-4.63Z"/>
    <path class="cls-1" d="M544.3,214.63c-7.54,0-13.45-2.26-17.73-6.79-4.28-4.52-6.43-10.73-6.43-18.61,0-5.35.96-9.92,2.88-13.72,1.92-3.8,4.68-6.72,8.28-8.74,3.6-2.02,7.93-3.03,13.01-3.03,7.54,0,13.42,2.25,17.63,6.73,4.22,4.49,6.32,10.74,6.32,18.76,0,5.28-.94,9.82-2.83,13.62-1.89,3.8-4.63,6.72-8.22,8.74-3.6,2.02-7.9,3.03-12.9,3.03ZM544.3,210.31c3.97,0,7.42-.84,10.33-2.52,2.91-1.68,5.12-4.09,6.63-7.25,1.51-3.15,2.26-6.92,2.26-11.31,0-6.65-1.7-11.84-5.09-15.58-3.39-3.74-8.11-5.6-14.14-5.6-4.11,0-7.61.84-10.49,2.52-2.88,1.68-5.09,4.11-6.63,7.3-1.54,3.19-2.31,6.97-2.31,11.36,0,6.58,1.71,11.74,5.14,15.47,3.43,3.74,8.19,5.6,14.29,5.6Z"/>
    <path class="cls-1" d="M582.03,213.39v-48.42h4.01l.62,9.87v38.55h-4.63ZM616.88,213.39v-31.67c0-4.32-1.2-7.68-3.6-10.08-2.4-2.4-5.72-3.6-9.97-3.6-6.92,0-12.58,3.02-16.96,9.05l-.82-4.11c4.52-6.17,10.62-9.25,18.3-9.25,5.55,0,9.89,1.58,13,4.73,3.12,3.15,4.68,7.47,4.68,12.95v31.97h-4.63Z"/>
    <path class="cls-1" d="M652.66,214.63c-3.98,0-7.54-.63-10.69-1.9-3.15-1.27-6-3.1-8.53-5.5l2.88-3.19c2.26,2.12,4.75,3.74,7.45,4.83,2.71,1.1,5.67,1.64,8.89,1.64,4.25,0,7.64-.89,10.18-2.67,2.54-1.78,3.8-4.18,3.8-7.2,0-2.6-.7-4.54-2.11-5.81-1.41-1.27-3.2-2.19-5.4-2.78-2.19-.58-4.52-1.08-6.99-1.49-2.13-.27-4.22-.65-6.27-1.13-2.06-.48-3.92-1.17-5.6-2.06-1.68-.89-3.03-2.14-4.06-3.75s-1.54-3.72-1.54-6.32c0-2.81.75-5.23,2.26-7.25,1.51-2.02,3.6-3.58,6.27-4.68,2.67-1.1,5.86-1.64,9.56-1.64,7.2,0,12.95,2.06,17.27,6.17l-2.88,3.19c-1.99-1.78-4.16-3.1-6.53-3.96-2.36-.86-4.99-1.29-7.87-1.29-4.11,0-7.39.84-9.82,2.52-2.43,1.68-3.65,3.92-3.65,6.73,0,2.47.67,4.3,2,5.5,1.34,1.2,3.07,2.07,5.19,2.62,2.12.55,4.42,1,6.89,1.34,2.12.27,4.23.65,6.32,1.13,2.09.48,4.01,1.2,5.76,2.16,1.75.96,3.15,2.28,4.21,3.96,1.06,1.68,1.59,3.89,1.59,6.63,0,2.88-.75,5.38-2.26,7.5-1.51,2.13-3.67,3.77-6.48,4.94-2.81,1.16-6.1,1.75-9.87,1.75Z"/>
  </g>
</svg>